<svg width="99" height="20" viewBox="0 0 99 20" fill="none" xmlns="http://www.w3.org/2000/svg">
<g clip-path="url(#clip0_513_127)">
<path d="M5.3562 0.952393V3.33418H6.54361V5.72864H5.3562V13.821C5.3562 14.8171 5.40461 15.3714 5.50293 15.4854C5.60125 15.5994 6.00966 15.6564 6.72816 15.6564V18.0952H4.95385C3.95249 18.0952 3.23702 18.0509 2.80894 17.9638C2.38087 17.8767 2.00272 17.6756 1.67599 17.3604C1.34926 17.0453 1.14657 16.6842 1.0664 16.2772C0.986231 15.8702 0.946903 14.9153 0.946903 13.4109V5.72864H0V3.33418H0.946903V0.952393H5.3562Z" fill="#89BDAC"/>
<path d="M12.2467 3.23098L12.0678 5.16135C12.7242 3.77812 13.6761 3.04654 14.9219 2.96509V8.13069C14.0929 8.13069 13.4848 8.24135 13.0975 8.46267C12.7086 8.68398 12.4707 8.99137 12.3804 9.38636C12.2902 9.78135 12.2467 10.6897 12.2467 12.1129V17.9101H7.72363V3.23098H12.2467Z" fill="#89BDAC"/>
<path d="M20.5885 0V2.33459H15.9316V0H20.5885ZM20.5885 3.23062V17.9098H15.9316V3.23062H20.5885Z" fill="#89BDAC"/>
<path d="M26.8131 3.23042L26.7354 4.52758C27.1382 4.00349 27.583 3.61157 28.0683 3.35337C28.5536 3.09517 29.0824 2.96606 29.6579 2.96606C30.3594 2.96606 30.966 3.15203 31.4777 3.52397C31.9894 3.8959 32.3083 4.32624 32.4343 4.81345C32.5618 5.30065 32.624 6.12598 32.624 7.29097V13.4756C32.624 14.8111 32.5432 15.7594 32.3829 16.3235C32.2227 16.8875 31.8946 17.3378 31.3984 17.6729C30.9022 18.0079 30.3034 18.1755 29.6019 18.1755C29.042 18.1755 28.524 18.0464 28.0465 17.7882C27.569 17.53 27.132 17.1457 26.7369 16.6355V20.0013H22.2139V3.23042H26.8147H26.8131ZM28.0994 7.49999C28.0994 6.59321 28.0652 6.04299 27.9983 5.85241C27.9314 5.66029 27.7448 5.565 27.4384 5.565C27.132 5.565 26.9469 5.67566 26.8613 5.89698C26.7758 6.1183 26.7322 6.65315 26.7322 7.50153V13.5862C26.7322 14.4715 26.7774 15.0248 26.866 15.2461C26.9562 15.4674 27.1491 15.5781 27.4477 15.5781C27.7464 15.5781 27.919 15.4766 27.9906 15.2738C28.0621 15.0709 28.0963 14.5791 28.0963 13.7968V7.50153L28.0994 7.49999Z" fill="#89BDAC"/>
<path d="M38.7691 0V17.9098H34.1123V0H38.7691Z" fill="#89BDAC"/>
<path d="M50.6357 10.8311H44.7813V14.0064C44.7813 14.6703 44.8295 15.0976 44.9275 15.2897C45.0239 15.4818 45.2105 15.5771 45.4874 15.5771C45.8311 15.5771 46.0598 15.4495 46.1764 15.1959C46.2915 14.9408 46.3506 14.449 46.3506 13.7189V11.7824H50.6388V12.866C50.6388 13.7727 50.5813 14.4705 50.4646 14.9562C50.3495 15.4434 50.0789 15.9629 49.6527 16.5162C49.2281 17.0694 48.6884 17.4844 48.0351 17.7611C47.3819 18.0377 46.5637 18.176 45.5776 18.176C44.5915 18.176 43.7796 18.0392 43.047 17.7672C42.316 17.4952 41.7467 17.1202 41.3392 16.6437C40.9317 16.1673 40.6502 15.6447 40.4946 15.073C40.3375 14.5012 40.2598 13.6698 40.2598 12.5786V8.29668C40.2598 7.01335 40.4355 6.00051 40.7855 5.25972C41.1354 4.51892 41.7109 3.95026 42.5088 3.5568C43.3068 3.16181 44.226 2.96509 45.2634 2.96509C46.5326 2.96509 47.5794 3.20331 48.4037 3.67822C49.2281 4.15467 49.8067 4.78481 50.1395 5.57018C50.4708 6.35554 50.6373 7.46059 50.6373 8.88378V10.8311H50.6357ZM46.1018 8.44115V7.36838C46.1018 6.60914 46.0613 6.11886 45.9789 5.89754C45.8965 5.67622 45.7285 5.56556 45.475 5.56556C45.1608 5.56556 44.9679 5.65932 44.8932 5.84836C44.8186 6.03586 44.7813 6.54305 44.7813 7.36991V8.44269H46.1018V8.44115Z" fill="#89BDAC"/>
<path d="M55.5283 6.25098V9.89041H52.1143V6.25098H55.5283ZM55.5283 14.2599V17.9101H52.1143V14.2599H55.5283Z" fill="#89BDAC"/>
<path d="M67.8313 3.23096V6.48309L64.495 14.9684H67.8313V17.9117H60.1182V14.8363L63.5245 6.17417H60.465V3.23096H67.8313Z" fill="#89BDAC"/>
<path d="M79.083 10.8311H73.2285V14.0064C73.2285 14.6703 73.2767 15.0976 73.3747 15.2897C73.4712 15.4818 73.6578 15.5771 73.9347 15.5771C74.2784 15.5771 74.507 15.4495 74.6237 15.1959C74.7388 14.9408 74.7979 14.449 74.7979 13.7189V11.7824H79.0861V12.866C79.0861 13.7727 79.0285 14.4705 78.9119 14.9562C78.7968 15.4434 78.5262 15.9629 78.1 16.5162C77.6754 17.0694 77.1356 17.4844 76.4824 17.7611C75.8291 18.0377 75.011 18.176 74.0249 18.176C73.0388 18.176 72.2269 18.0392 71.4943 17.7672C70.7632 17.4952 70.194 17.1202 69.7865 16.6437C69.379 16.1673 69.0974 15.6447 68.9419 15.073C68.7848 14.5012 68.707 13.6698 68.707 12.5786V8.29668C68.707 7.01335 68.8828 6.00051 69.2328 5.25972C69.5827 4.51892 70.1582 3.95026 70.9561 3.5568C71.754 3.16181 72.6733 2.96509 73.7107 2.96509C74.9799 2.96509 76.0267 3.20331 76.851 3.67822C77.6754 4.15467 78.254 4.78481 78.5868 5.57018C78.9181 6.35554 79.0845 7.46059 79.0845 8.88378V10.8311H79.083ZM74.549 8.44115V7.36838C74.549 6.60914 74.5086 6.11886 74.4262 5.89754C74.3437 5.67622 74.1758 5.56556 73.9222 5.56556C73.608 5.56556 73.4152 5.65932 73.3405 5.84836C73.2659 6.03586 73.2285 6.54305 73.2285 7.36991V8.44269H74.549V8.44115Z" fill="#89BDAC"/>
<path d="M85.0836 3.23098L84.9047 5.16135C85.5611 3.77812 86.513 3.04654 87.7588 2.96509V8.13069C86.9298 8.13069 86.3217 8.24135 85.9344 8.46267C85.5455 8.68398 85.3076 8.99137 85.2174 9.38636C85.1271 9.78135 85.0836 10.6897 85.0836 12.1129V17.9101H80.5605V3.23098H85.0836Z" fill="#89BDAC"/>
<path d="M99.0004 8.38582V11.9807C99.0004 13.3009 98.9335 14.2692 98.7982 14.8839C98.6644 15.5002 98.3767 16.0751 97.9365 16.6099C97.4964 17.1448 96.9302 17.5397 96.2412 17.7933C95.5506 18.0485 94.7573 18.1745 93.8614 18.1745C92.8613 18.1745 92.0136 18.0654 91.3199 17.8487C90.6262 17.632 90.0865 17.3031 89.7023 16.8635C89.3182 16.4255 89.0429 15.8937 88.8795 15.2712C88.7147 14.6488 88.6338 13.7128 88.6338 12.4664V8.7055C88.6338 7.34071 88.7831 6.27562 89.0817 5.5087C89.3804 4.74177 89.917 4.12547 90.6947 3.66131C91.4708 3.19716 92.4631 2.96509 93.6732 2.96509C94.6889 2.96509 95.5599 3.11417 96.2878 3.41387C97.0157 3.71203 97.5772 4.10241 97.9723 4.5804C98.3674 5.05992 98.638 5.55327 98.7842 6.06353C98.9304 6.57225 99.002 7.34686 99.002 8.38736L99.0004 8.38582ZM94.4774 7.27924C94.4774 6.52768 94.4369 6.05277 94.3545 5.85758C94.2721 5.66239 94.0963 5.56403 93.8288 5.56403C93.5612 5.56403 93.3808 5.66239 93.2906 5.85758C93.2004 6.05277 93.1568 6.52614 93.1568 7.27924V13.9049C93.1568 14.5981 93.2019 15.0499 93.2906 15.2605C93.3808 15.471 93.555 15.5756 93.8163 15.5756C94.0776 15.5756 94.2627 15.4803 94.3483 15.2881C94.4338 15.096 94.4774 14.6841 94.4774 14.0494V7.27924Z" fill="#89BDAC"/>
</g>
<defs>
<clipPath id="clip0_513_127">
<rect width="99" height="20" fill="white"/>
</clipPath>
</defs>
</svg>
