<svg width="100" height="96" viewBox="0 0 100 96" fill="none" xmlns="http://www.w3.org/2000/svg">
<path d="M36.4944 5V15.6982H41.2594V26.4533H36.4944V62.8016C36.4944 67.2758 36.6886 69.7654 37.0832 70.2775C37.4777 70.7897 39.1167 71.0457 42 71.0457V82H34.8797C30.8613 82 27.9901 81.8008 26.2723 81.4096C24.5544 81.0184 23.0369 80.115 21.7257 78.6995C20.4146 77.284 19.6012 75.6622 19.2795 73.8341C18.9577 72.006 18.7999 67.7168 18.7999 60.9593V26.4533H15V15.6982H18.7999V5H36.4944Z" fill="#73AE9B"/>
<path d="M79 31V44.2915L66.4561 78.9711H79V91H50V78.4309L62.807 43.0289H51.3041V31H79Z" fill="#73AE9B"/>
</svg>
