<svg width="928" height="513" viewBox="0 0 928 513" fill="none" xmlns="http://www.w3.org/2000/svg">
<path d="M566.771 458.321C567.115 458.087 567.625 458.175 568.292 458.592C568.61 459.842 568.803 461.395 568.876 463.238C568.959 465.087 568.907 466.884 568.729 468.634C568.547 470.384 568.193 471.706 567.667 472.592C566.568 472.54 565.797 472.165 565.354 471.467C564.922 470.759 564.667 469.883 564.584 468.842C564.501 467.8 564.459 466.707 564.459 465.551V465.321C563.261 464.228 561.719 463.378 559.834 462.779C557.959 462.17 556.032 461.863 554.063 461.863C552.491 461.863 551.011 462.087 549.626 462.529C548.251 462.977 547.115 463.671 546.229 464.613C545.49 465.394 544.964 466.332 544.646 467.426C544.339 468.525 544.344 469.832 544.667 471.342C544.761 471.915 545.032 472.55 545.479 473.259C545.922 473.967 546.355 474.53 546.771 474.946L547.251 475.404C548.501 476.561 550.048 477.634 551.896 478.634C553.756 479.623 555.73 480.623 557.813 481.634C559.897 482.649 561.855 483.779 563.688 485.029C565.407 486.186 566.897 487.488 568.146 488.946C569.396 490.405 570.261 492.102 570.751 494.029C571.251 495.962 571.168 498.212 570.501 500.779C569.918 503.071 568.777 505.045 567.084 506.696C565.386 508.337 563.396 509.545 561.104 510.321C558.797 511.097 556.297 511.447 553.604 511.363C550.922 511.29 548.23 510.738 545.521 509.696C545.006 509.795 544.563 509.988 544.188 510.279C543.824 510.571 543.485 510.899 543.167 511.259C542.709 511.727 542.24 512.082 541.771 512.321C541.298 512.556 540.647 512.331 539.813 511.654C539.241 510.712 538.845 509.477 538.626 507.946C538.418 506.405 538.355 504.759 538.438 503.009C538.522 501.259 538.714 499.613 539.021 498.071C539.339 496.53 539.735 495.316 540.209 494.426C541.402 494.842 542.209 495.509 542.626 496.426C543.043 497.342 543.355 498.353 543.563 499.446C543.824 500.587 544.074 501.717 544.313 502.842C544.548 503.967 545.084 504.978 545.917 505.863C546.802 506.754 547.876 507.394 549.126 507.779C550.376 508.17 551.678 508.363 553.042 508.363C554.761 508.311 556.469 507.983 558.167 507.384C559.86 506.79 561.345 505.982 562.626 504.967C563.902 503.941 564.719 502.774 565.084 501.467C565.402 499.233 565.323 497.436 564.854 496.071C564.381 494.712 563.651 493.592 562.667 492.717C561.469 491.566 560.001 490.644 558.251 489.946C556.501 489.238 554.761 488.384 553.042 487.384C552.36 486.967 551.74 486.477 551.188 485.904C550.647 485.321 550.032 484.853 549.354 484.488C548.631 484.072 547.86 483.738 547.042 483.488C546.235 483.228 545.547 482.904 544.979 482.529C543.771 481.753 542.735 480.738 541.876 479.488C541.011 478.238 540.376 476.878 539.959 475.404C539.751 474.686 539.589 473.935 539.479 473.154C539.381 472.363 539.334 471.55 539.334 470.717C539.334 469.05 539.605 467.415 540.146 465.801C540.699 464.176 541.553 462.712 542.709 461.404C544.735 460.462 547.027 459.732 549.584 459.217C552.152 458.691 554.761 458.467 557.417 458.551C560.084 458.624 562.563 459.154 564.854 460.154C565.063 460.045 565.24 459.915 565.396 459.759C565.563 459.608 565.693 459.425 565.792 459.217C566.11 458.842 566.438 458.545 566.771 458.321Z" fill="#222222"/>
<path d="M93.4355 459.446C95.2116 459.446 96.8317 459.608 98.29 459.926C99.7482 460.233 100.862 460.879 101.644 461.863C101.393 462.655 100.779 463.107 99.8105 463.217C98.8523 463.316 97.842 463.337 96.79 463.279H94.915C94.7067 463.436 94.7582 463.821 95.0811 464.446C95.1748 464.655 95.2692 464.879 95.3525 465.113C95.4358 465.353 95.4775 465.571 95.4775 465.779C95.2537 465.988 95.0869 466.238 94.9775 466.529C94.8786 466.821 94.7793 467.175 94.6855 467.592C94.6283 468.899 94.6025 470.191 94.6025 471.467C94.6025 472.748 94.5706 474.061 94.5186 475.404C94.4769 480.42 94.4411 485.483 94.415 490.592C94.3838 495.706 94.373 500.796 94.373 505.863C95.5657 505.921 96.8624 506.212 98.2686 506.738C99.685 507.254 100.706 508.061 101.331 509.154C100.024 509.935 98.5237 510.352 96.8311 510.404C95.1333 510.446 93.3781 510.42 91.5605 510.321C90.4616 510.269 89.3782 510.228 88.3105 510.196C87.2377 510.17 86.206 510.238 85.2061 510.404C84.8989 510.446 84.6646 510.566 84.498 510.759C84.3419 510.941 84.191 511.134 84.04 511.342C83.8838 511.644 83.6753 511.915 83.415 512.154C83.1494 512.389 82.7327 512.43 82.165 512.279C81.6339 511.54 81.4356 510.816 81.5605 510.092C81.696 509.358 81.9877 508.665 82.4355 508.009C82.8783 507.358 83.279 506.821 83.6436 506.404H87.248C87.8729 506.404 88.4196 506.3 88.8936 506.092C88.8363 501.399 88.8105 496.405 88.8105 491.113C88.8105 485.811 88.7588 480.571 88.665 475.404C88.6077 471.337 88.4459 467.426 88.1855 463.676C87.821 463.566 87.4352 463.498 87.0186 463.467C86.602 463.441 86.1541 463.426 85.6855 463.426C84.946 463.426 84.2376 463.405 83.5605 463.363C82.8939 463.311 82.2946 463.071 81.7686 462.654C81.6697 462.238 81.6856 461.925 81.8105 461.717C81.9355 461.509 82.0814 461.3 82.248 461.092C82.399 460.941 82.5241 460.774 82.623 460.592C82.7323 460.399 82.79 460.17 82.79 459.904C84.3994 459.904 86.1287 459.832 87.9775 459.676C89.8368 459.525 91.6544 459.446 93.4355 459.446Z" fill="#222222"/>
<path d="M613.78 459.446C615.556 459.446 617.176 459.608 618.635 459.926C620.093 460.233 621.207 460.879 621.988 461.863C621.738 462.655 621.124 463.107 620.155 463.217C619.197 463.316 618.187 463.337 617.135 463.279H615.26C615.051 463.436 615.103 463.821 615.426 464.446C615.52 464.655 615.614 464.879 615.697 465.113C615.78 465.353 615.822 465.571 615.822 465.779C615.598 465.988 615.432 466.238 615.322 466.529C615.223 466.821 615.124 467.175 615.03 467.592C614.973 468.899 614.947 470.191 614.947 471.467C614.947 472.748 614.915 474.061 614.863 475.404C614.822 480.42 614.786 485.483 614.76 490.592C614.729 495.706 614.718 500.796 614.718 505.863C615.91 505.921 617.207 506.212 618.613 506.738C620.03 507.254 621.051 508.061 621.676 509.154C620.369 509.935 618.868 510.352 617.176 510.404C615.478 510.446 613.723 510.42 611.905 510.321C610.806 510.269 609.723 510.228 608.655 510.196C607.582 510.17 606.551 510.238 605.551 510.404C605.244 510.446 605.009 510.566 604.843 510.759C604.687 510.941 604.536 511.134 604.385 511.342C604.229 511.644 604.02 511.915 603.76 512.154C603.494 512.389 603.077 512.43 602.51 512.279C601.979 511.54 601.78 510.816 601.905 510.092C602.041 509.358 602.332 508.665 602.78 508.009C603.223 507.358 603.624 506.821 603.988 506.404H607.593C608.218 506.404 608.764 506.3 609.238 506.092C609.181 501.399 609.155 496.405 609.155 491.113C609.155 485.811 609.104 480.571 609.01 475.404C608.952 471.337 608.791 467.426 608.53 463.676C608.166 463.566 607.78 463.498 607.363 463.467C606.947 463.441 606.499 463.426 606.03 463.426C605.291 463.426 604.582 463.405 603.905 463.363C603.239 463.311 602.639 463.071 602.113 462.654C602.014 462.238 602.03 461.925 602.155 461.717C602.28 461.509 602.426 461.3 602.593 461.092C602.744 460.941 602.869 460.774 602.968 460.592C603.077 460.399 603.135 460.17 603.135 459.904C604.744 459.904 606.473 459.832 608.322 459.676C610.182 459.525 611.999 459.446 613.78 459.446Z" fill="#222222"/>
<path d="M14.6963 459.363C16.0972 459.421 17.4099 459.629 18.6338 459.988C19.868 460.353 20.9307 461.082 21.8213 462.176C20.8734 462.65 19.8108 463.092 18.6338 463.509C17.4671 463.925 16.5137 464.191 15.7793 464.301C16.1959 466.124 16.6543 467.962 17.1543 469.821C17.6543 471.67 18.1859 473.529 18.7588 475.404C20.1755 479.946 21.7171 484.52 23.3838 489.113C25.0503 493.696 26.4561 498.316 27.6123 502.967C29.4299 498.582 31.2634 494.129 33.1123 489.613C34.9716 485.103 36.6335 480.394 38.0918 475.488C39.1335 471.988 39.9925 468.441 40.6748 464.842C40.3102 464.274 39.7635 463.873 39.0293 463.634C38.3054 463.399 37.5504 463.175 36.7588 462.967C35.9775 462.758 35.3258 462.446 34.7998 462.029C34.9093 461.253 35.4094 460.67 36.2998 460.279C37.1852 459.878 38.2796 459.628 39.5713 459.529C40.8732 459.42 42.2219 459.394 43.6123 459.446C44.9977 459.504 46.238 459.582 47.3213 459.676C48.2639 459.79 49.1391 460.04 49.9463 460.426C50.7638 460.816 51.3523 461.275 51.7168 461.801C50.5606 462.941 49.243 463.926 47.7588 464.759C46.2693 465.592 45.0084 466.665 43.9668 467.967C43.6439 469.274 43.3265 470.561 43.0088 471.821C42.7015 473.071 42.3682 474.296 42.0088 475.488C40.3942 481.072 38.5817 486.478 36.5713 491.696C34.5557 496.904 32.7431 502.436 31.1338 508.279C30.6025 508.811 30.165 509.4 29.8213 510.051C29.488 510.707 29.092 511.311 28.6338 511.884C28.0505 512.201 27.4928 512.306 26.9668 512.196C26.4512 512.097 25.956 511.967 25.4873 511.801C25.071 511.702 24.7849 511.623 24.6338 511.571C22.3838 505.988 20.331 500.066 18.4873 493.801C16.6383 487.54 14.7217 481.404 12.7373 475.404C12.0551 473.321 11.3466 471.295 10.6123 469.321C9.88839 467.337 9.11257 465.374 8.2793 463.426C7.80534 463.275 7.347 463.227 6.9043 463.279C6.45638 463.337 6.02897 463.384 5.6123 463.426C5.13849 463.54 4.69585 463.608 4.2793 463.634C3.86266 463.665 3.44593 463.592 3.0293 463.426C2.66471 462.858 2.56055 462.352 2.7168 461.904C2.8678 461.462 3.05053 461.03 3.25879 460.613C3.36816 460.462 3.45638 460.321 3.5293 460.196C3.61261 460.061 3.68002 459.915 3.7373 459.759C4.77886 459.816 5.82075 459.816 6.8623 459.759C7.90386 459.707 8.94575 459.649 9.9873 459.592C10.779 459.498 11.5765 459.436 12.3838 459.404C13.1858 459.378 13.9568 459.363 14.6963 459.363Z" fill="#222222"/>
<path fill-rule="evenodd" clip-rule="evenodd" d="M302.333 458.071C304.317 458.103 306.322 458.311 308.354 458.696C310.395 459.087 312.233 459.712 313.874 460.571C315.525 461.436 316.692 462.572 317.374 463.988C317.676 464.046 317.947 464.045 318.187 463.988C318.421 463.936 318.645 463.904 318.854 463.904C319.062 463.852 319.27 463.816 319.479 463.801C319.687 463.775 319.948 463.837 320.271 463.988C320.213 464.613 320.197 465.207 320.229 465.759C320.255 466.3 320.343 466.78 320.499 467.196C321.426 467.712 322.13 468.457 322.604 469.426C323.072 470.384 323.463 471.399 323.771 472.467C324.088 473.54 324.426 474.546 324.791 475.488L325.416 476.738C325.468 477.363 325.526 477.983 325.583 478.592C325.635 479.191 325.692 479.801 325.749 480.426C325.843 481.832 325.942 483.238 326.041 484.654C326.15 486.061 326.155 487.358 326.062 488.551C325.947 490.499 325.567 492.254 324.916 493.821C324.26 495.379 323.551 496.899 322.791 498.384C322.041 499.873 321.427 501.503 320.958 503.279C320.442 503.17 319.88 503.483 319.271 504.217C318.672 504.941 318.145 505.697 317.687 506.488C315.489 507.644 313.166 508.842 310.708 510.092C308.26 511.342 305.572 511.967 302.646 511.967C299.937 511.967 297.442 511.383 295.166 510.217C292.9 509.04 290.697 507.925 288.562 506.884C288.562 506.149 288.281 505.675 287.729 505.467C287.187 505.258 286.733 504.978 286.374 504.613C284.332 502.311 282.63 499.608 281.271 496.509C279.922 493.399 279.145 489.894 278.937 485.988C278.78 482.337 279.171 478.811 280.104 475.404C280.937 472.378 282.171 469.67 283.812 467.279C285.463 464.878 287.489 463.128 289.896 462.029C290.729 461.144 291.697 460.321 292.812 459.571C293.936 458.811 295.312 458.634 296.937 459.051L297.249 458.509C298.65 458.191 300.343 458.045 302.333 458.071ZM309.333 462.196C307.484 461.728 305.51 461.551 303.416 461.676C301.333 461.801 299.322 462.191 297.396 462.842C295.463 463.498 293.822 464.296 292.479 465.238C291.27 466.546 290.233 468.071 289.374 469.821C288.509 471.571 287.822 473.436 287.312 475.404C286.947 476.821 286.655 478.29 286.437 479.801C286.228 481.316 286.124 482.832 286.124 484.342C286.082 487.675 286.489 490.946 287.354 494.154C288.213 497.363 289.525 500.113 291.291 502.404C292.708 504.238 294.416 505.675 296.416 506.717C298.426 507.758 300.713 508.233 303.271 508.134C306.354 508.024 309.01 507.061 311.249 505.238C313.499 503.405 315.276 501.061 316.583 498.196C318.093 495.004 319.031 491.415 319.396 487.426C319.771 483.441 319.53 479.462 318.687 475.488C318.645 475.228 318.593 474.988 318.541 474.779C318.484 474.571 318.426 474.363 318.374 474.154C318.218 473.321 317.864 472.279 317.312 471.029C316.77 469.779 316.186 468.571 315.562 467.404C314.937 466.228 314.385 465.4 313.916 464.926C312.718 463.566 311.192 462.655 309.333 462.196Z" fill="#222222"/>
<path fill-rule="evenodd" clip-rule="evenodd" d="M138.82 459.363C141.747 459.212 144.956 459.165 148.445 459.217C151.945 459.258 155.389 459.483 158.779 459.884C162.18 460.274 165.206 460.925 167.862 461.842C170.529 462.748 172.456 464.009 173.654 465.634C174.654 466.941 175.571 468.415 176.404 470.051C177.238 471.691 177.935 473.504 178.508 475.488C179.091 477.53 179.508 479.712 179.758 482.029C180.018 484.352 180.018 486.816 179.758 489.426C179.451 492.551 178.633 495.373 177.3 497.884C175.966 500.384 174.321 502.55 172.362 504.384C170.404 506.207 168.331 507.634 166.154 508.676C163.54 509.566 160.721 510.102 157.695 510.279C154.664 510.462 151.612 510.551 148.529 510.551C145.821 510.551 143.175 510.623 140.592 510.759C138.008 510.884 135.643 511.259 133.508 511.884C133.602 510.993 133.831 510.217 134.195 509.551C134.57 508.874 134.993 508.27 135.467 507.738C135.826 507.629 136.16 507.571 136.467 507.571H137.425C137.727 507.629 138.05 507.654 138.383 507.654C138.727 507.654 139.113 507.582 139.529 507.426C139.639 504.665 139.68 501.675 139.654 498.467C139.623 495.259 139.581 491.936 139.529 488.488C139.488 486.353 139.451 484.186 139.425 481.988C139.394 479.796 139.383 477.602 139.383 475.404C139.383 473.477 139.394 471.56 139.425 469.654C139.451 467.753 139.488 465.894 139.529 464.071C139.014 463.811 138.466 463.665 137.883 463.634C137.31 463.608 136.742 463.624 136.175 463.676C135.644 463.676 135.102 463.665 134.55 463.634C134.008 463.608 133.529 463.462 133.112 463.196C133.222 461.686 133.847 460.686 134.987 460.196C136.138 459.696 137.414 459.421 138.82 459.363ZM157.654 463.634C154.081 463.082 150.159 463.144 145.883 463.821C145.883 465.602 145.889 467.457 145.904 469.384C145.93 471.316 145.945 473.321 145.945 475.404C145.997 480.003 146.029 484.733 146.029 489.592C146.029 494.441 145.977 499.03 145.883 503.363C145.883 503.936 145.841 504.571 145.758 505.279C145.674 505.977 145.508 506.613 145.258 507.196C146.242 507.144 147.186 507.113 148.092 507.113H150.8C152.519 507.113 154.164 507.087 155.737 507.029C157.305 506.977 158.763 506.796 160.112 506.488C161.055 506.228 162.217 505.837 163.592 505.321C164.977 504.795 166.04 504.249 166.779 503.676C167.972 502.733 168.987 501.28 169.82 499.321C170.654 497.363 171.289 495.15 171.737 492.676C172.18 490.191 172.435 487.65 172.508 485.051C172.591 482.441 172.477 480.009 172.175 477.759C172.118 477.342 172.05 476.956 171.967 476.592C171.894 476.217 171.805 475.853 171.695 475.488C170.82 471.947 169.154 469.228 166.695 467.321C164.237 465.405 161.222 464.175 157.654 463.634Z" fill="#222222"/>
<path fill-rule="evenodd" clip-rule="evenodd" d="M396.488 459.363C399.415 459.212 402.624 459.165 406.113 459.217C409.613 459.258 413.057 459.483 416.447 459.884C419.848 460.274 422.874 460.925 425.53 461.842C428.197 462.748 430.124 464.009 431.322 465.634C432.322 466.941 433.239 468.415 434.072 470.051C434.906 471.691 435.603 473.504 436.176 475.488C436.759 477.53 437.176 479.712 437.426 482.029C437.686 484.352 437.686 486.816 437.426 489.426C437.118 492.551 436.301 495.373 434.968 497.884C433.634 500.384 431.989 502.55 430.03 504.384C428.072 506.207 425.999 507.634 423.822 508.676C421.208 509.566 418.389 510.102 415.363 510.279C412.332 510.462 409.28 510.551 406.197 510.551C403.489 510.551 400.843 510.623 398.26 510.759C395.676 510.884 393.311 511.259 391.176 511.884C391.27 510.993 391.499 510.217 391.863 509.551C392.238 508.874 392.661 508.27 393.135 507.738C393.494 507.629 393.828 507.571 394.135 507.571H395.093C395.395 507.629 395.718 507.654 396.051 507.654C396.395 507.654 396.781 507.582 397.197 507.426C397.307 504.665 397.348 501.675 397.322 498.467C397.291 495.259 397.249 491.936 397.197 488.488C397.156 486.353 397.119 484.186 397.093 481.988C397.062 479.796 397.051 477.602 397.051 475.404C397.051 473.477 397.062 471.56 397.093 469.654C397.119 467.753 397.156 465.894 397.197 464.071C396.682 463.811 396.134 463.665 395.551 463.634C394.978 463.608 394.41 463.624 393.843 463.676C393.312 463.676 392.77 463.665 392.218 463.634C391.676 463.608 391.197 463.462 390.78 463.196C390.89 461.686 391.515 460.686 392.655 460.196C393.806 459.696 395.082 459.421 396.488 459.363ZM415.322 463.634C411.749 463.082 407.827 463.144 403.551 463.821C403.551 465.602 403.557 467.457 403.572 469.384C403.598 471.316 403.613 473.321 403.613 475.404C403.665 480.003 403.697 484.733 403.697 489.592C403.697 494.441 403.645 499.03 403.551 503.363C403.551 503.936 403.509 504.571 403.426 505.279C403.342 505.977 403.176 506.613 402.926 507.196C403.91 507.144 404.854 507.113 405.76 507.113H408.468C410.187 507.113 411.832 507.087 413.405 507.029C414.973 506.977 416.431 506.796 417.78 506.488C418.723 506.228 419.885 505.837 421.26 505.321C422.645 504.795 423.708 504.249 424.447 503.676C425.64 502.733 426.655 501.28 427.488 499.321C428.322 497.363 428.957 495.15 429.405 492.676C429.848 490.191 430.103 487.65 430.176 485.051C430.259 482.441 430.145 480.009 429.843 477.759C429.785 477.342 429.718 476.956 429.635 476.592C429.562 476.217 429.473 475.853 429.363 475.488C428.488 471.947 426.822 469.228 424.363 467.321C421.905 465.405 418.89 464.175 415.322 463.634Z" fill="#222222"/>
<path d="M676.395 458.426C678.061 458.374 679.738 458.52 681.436 458.863C683.128 459.197 684.712 459.753 686.186 460.529C686.545 460.227 686.936 460.113 687.353 460.196C687.769 460.269 688.186 460.357 688.603 460.467C688.92 460.566 689.207 460.655 689.457 460.738C689.717 460.821 689.983 460.836 690.248 460.779C690.566 460.727 690.878 460.623 691.186 460.467C691.503 460.3 691.79 460.145 692.04 459.988C692.457 459.728 692.858 459.52 693.248 459.363C693.649 459.212 694.087 459.238 694.561 459.446C694.295 460.337 694.186 461.3 694.228 462.342C694.28 463.383 694.363 464.457 694.478 465.551C694.53 466.082 694.581 466.608 694.623 467.134C694.675 467.649 694.707 468.134 694.707 468.592C694.759 469.8 694.655 470.904 694.395 471.904C694.129 472.894 693.55 473.671 692.665 474.238C691.79 473.822 691.28 473.253 691.145 472.529C691.02 471.795 690.957 471.009 690.957 470.176C690.957 469.707 690.925 469.217 690.873 468.717C690.816 468.217 690.712 467.737 690.561 467.279C689.878 465.295 688.321 463.857 685.895 462.967C683.478 462.081 680.883 461.691 678.123 461.801C676.191 461.842 674.28 462.103 672.395 462.571C670.52 463.045 668.983 463.728 667.79 464.613C666.165 465.769 664.832 467.279 663.79 469.154C662.748 471.029 661.962 473.113 661.436 475.404C661.186 476.712 660.988 478.061 660.853 479.446C660.728 480.821 660.665 482.217 660.665 483.634C660.717 486.816 661.108 489.962 661.832 493.071C662.566 496.17 663.623 498.904 664.998 501.279C666.383 503.654 668.045 505.395 669.978 506.488C671.962 507.212 674.191 507.644 676.665 507.779C679.149 507.904 681.499 507.686 683.707 507.113C685.926 506.546 687.613 505.608 688.77 504.301C688.603 503.04 688.52 501.675 688.52 500.217C688.52 498.759 688.571 497.3 688.686 495.842C688.686 494.957 688.696 494.066 688.728 493.176C688.754 492.29 688.77 491.425 688.77 490.592C688.296 490.123 687.675 489.884 686.915 489.884C686.165 489.884 685.447 489.941 684.77 490.051C684.197 490.15 683.676 490.196 683.207 490.196C682.733 490.196 682.363 490.092 682.103 489.884C681.837 487.957 682.175 486.853 683.123 486.571C684.066 486.28 685.447 486.191 687.27 486.301C687.894 486.301 688.545 486.316 689.228 486.342C689.905 486.357 690.613 486.342 691.353 486.301C691.655 486.301 691.962 486.29 692.27 486.259C692.587 486.233 692.905 486.191 693.228 486.134C694.478 486.04 695.728 485.988 696.978 485.988C698.228 485.988 699.28 486.186 700.145 486.571C701.004 486.962 701.54 487.707 701.748 488.801C701.54 489.483 701.066 489.879 700.332 489.988C699.608 490.087 698.8 490.134 697.915 490.134C697.55 490.134 697.175 490.15 696.79 490.176C696.399 490.191 696.045 490.227 695.728 490.279C695.254 491.378 694.978 492.697 694.895 494.238C694.822 495.78 694.816 497.384 694.873 499.051C694.915 500.665 694.905 502.28 694.853 503.904C694.811 505.519 694.551 506.956 694.082 508.217C693.4 508.675 692.717 508.92 692.04 508.946C691.373 508.978 690.697 508.707 690.02 508.134C688.447 509.175 686.54 509.998 684.29 510.592C682.05 511.186 679.706 511.53 677.248 511.613C674.8 511.697 672.415 511.435 670.082 510.842C667.759 510.232 665.717 509.248 663.957 507.884C663.483 507.524 663.071 507.019 662.728 506.363C662.394 505.712 661.988 505.15 661.52 504.676C661.004 504.108 660.441 503.644 659.832 503.279C659.233 502.92 658.78 502.524 658.478 502.092C656.905 499.956 655.738 497.488 654.978 494.696C654.228 491.905 653.853 489.025 653.853 486.051C653.853 484.233 653.982 482.425 654.248 480.634C654.508 478.832 654.874 477.087 655.332 475.404C656.217 472.337 657.483 469.551 659.123 467.051C660.774 464.54 662.748 462.629 665.04 461.321C666.55 460.488 668.29 459.816 670.248 459.301C672.206 458.775 674.254 458.483 676.395 458.426Z" fill="#222222"/>
<path fill-rule="evenodd" clip-rule="evenodd" d="M896.299 459.571C899.142 459.587 901.778 459.842 904.194 460.342C906.621 460.842 908.673 461.749 910.34 463.051C911.757 464.15 912.825 465.587 913.549 467.363C914.283 469.129 914.517 471.394 914.257 474.154C914.2 474.363 914.1 474.571 913.965 474.779C913.84 474.988 913.726 475.228 913.632 475.488C913.309 476.113 913.017 476.753 912.757 477.404C912.507 478.061 912.303 478.754 912.152 479.488C910.944 479.947 909.923 480.608 909.09 481.467C908.257 482.331 907.366 483.129 906.424 483.863C905.492 484.603 904.241 485.045 902.674 485.196C904.866 486.504 906.679 488.212 908.111 490.321C909.538 492.436 910.788 494.718 911.861 497.176C912.929 499.624 913.992 502.103 915.049 504.613C915.299 504.769 915.575 504.915 915.882 505.051C916.199 505.176 916.517 505.316 916.84 505.467C917.882 505.883 918.846 506.42 919.736 507.071C920.622 507.728 920.83 508.811 920.361 510.321C918.638 510.795 917.033 510.941 915.549 510.759C914.059 510.566 912.559 510.29 911.049 509.926C910.007 508.676 909.116 507.155 908.382 505.363C907.658 503.561 906.975 501.649 906.34 499.634C905.715 497.623 904.986 495.732 904.152 493.967C903.319 492.134 902.309 490.624 901.132 489.426C899.965 488.217 898.444 487.488 896.569 487.238C895.788 487.129 894.976 487.071 894.132 487.071C893.299 487.071 892.491 487.102 891.715 487.154C891.09 487.212 890.512 487.238 889.986 487.238C889.471 487.238 889.007 487.212 888.59 487.154C888.475 488.561 888.434 489.967 888.465 491.384C888.491 492.79 888.553 494.197 888.652 495.613C888.704 497.17 888.762 498.748 888.819 500.342C888.871 501.941 888.798 503.519 888.59 505.071C888.949 505.863 889.574 506.379 890.465 506.613C891.35 506.837 892.246 507.066 893.152 507.301C894.069 507.54 894.736 507.999 895.152 508.676C894.527 509.509 893.486 510.019 892.027 510.196C890.569 510.379 889.006 510.467 887.34 510.467H884.674C883.257 510.425 881.95 510.42 880.757 510.446C879.559 510.462 878.596 510.603 877.861 510.863C877.445 509.77 877.445 508.946 877.861 508.404C878.278 507.852 878.825 507.394 879.507 507.029C880.184 506.67 880.872 506.337 881.569 506.029C882.277 505.712 882.762 505.238 883.027 504.613C882.913 499.447 882.82 494.519 882.736 489.821C882.663 485.113 882.58 480.311 882.486 475.404L882.236 463.904C881.82 463.753 881.387 463.676 880.944 463.676H879.652C879.137 463.733 878.632 463.748 878.132 463.717C877.632 463.691 877.173 463.488 876.757 463.113C876.809 462.863 876.798 462.665 876.715 462.509C876.642 462.342 876.554 462.185 876.444 462.029C876.403 461.878 876.351 461.711 876.299 461.529C876.242 461.337 876.267 461.134 876.382 460.926C877.424 460.358 878.601 460.04 879.924 459.967C881.257 459.883 882.658 459.863 884.132 459.904H885.84C886.423 459.904 886.996 459.883 887.569 459.842C890.538 459.633 893.45 459.545 896.299 459.571ZM898.944 463.134C896.887 463.024 894.658 462.999 892.257 463.051C891.741 463.051 891.22 463.066 890.694 463.092C890.179 463.107 889.632 463.113 889.049 463.113C888.575 463.587 888.34 464.248 888.34 465.092C888.34 465.925 888.367 466.811 888.424 467.738C888.476 468.103 888.518 468.467 888.549 468.842C888.575 469.206 888.59 469.566 888.59 469.926C888.59 470.759 888.559 471.649 888.507 472.592C888.45 473.54 888.392 474.477 888.34 475.404C888.298 476.769 888.277 478.171 888.277 479.613C888.277 481.045 888.382 482.462 888.59 483.863C891.09 484.28 893.663 484.28 896.319 483.863C898.986 483.447 901.158 482.587 902.84 481.279C904.809 479.712 906.111 477.78 906.736 475.488C906.997 474.447 907.132 473.436 907.132 472.446C907.132 471.238 906.949 469.983 906.59 468.676C906.225 467.374 905.653 466.066 904.861 464.759C902.986 463.774 901.012 463.233 898.944 463.134Z" fill="#222222"/>
<path d="M769.92 459.134C771.279 459.082 772.633 459.134 773.982 459.301C775.342 459.457 776.513 459.691 777.503 460.009C778.503 460.316 779.107 460.675 779.315 461.092C779.258 462.191 778.722 462.842 777.712 463.051C776.696 463.259 775.586 463.363 774.378 463.363C773.962 463.462 773.69 463.712 773.565 464.113C773.44 464.504 773.321 464.921 773.212 465.363C773.113 465.795 772.8 466.171 772.274 466.488C772.425 467.894 772.545 469.353 772.628 470.863C772.711 472.379 772.774 473.921 772.815 475.488C772.868 477.269 772.899 479.087 772.899 480.946V486.529C772.951 490.545 773.014 494.498 773.087 498.384C773.17 502.274 773.446 505.837 773.92 509.071C773.347 509.905 772.461 510.379 771.253 510.488C770.055 510.587 769.222 510.352 768.753 509.779C767.503 508.269 766.315 506.571 765.19 504.696C764.065 502.811 762.743 500.977 761.232 499.196C758.41 495.863 755.696 492.061 753.087 487.779C750.488 483.503 747.884 479.378 745.274 475.404C744.285 473.795 743.264 472.259 742.212 470.801C741.17 469.332 740.129 467.946 739.087 466.654C739.03 468.212 738.972 469.697 738.92 471.113C738.878 472.519 738.857 473.946 738.857 475.404C738.857 477.336 738.878 479.337 738.92 481.404C738.972 483.462 739.03 485.738 739.087 488.238C739.087 489.186 739.071 490.17 739.045 491.196C739.014 492.212 738.982 493.212 738.94 494.196C738.826 496.28 738.758 498.254 738.732 500.113C738.701 501.962 738.925 503.483 739.399 504.676C739.66 505.415 740.133 505.967 740.815 506.342C741.492 506.706 742.196 507.03 742.92 507.321C743.654 507.602 744.201 508.003 744.565 508.529C744.357 509.154 743.925 509.571 743.274 509.779C742.618 509.988 742.139 510.321 741.837 510.779C740.889 510.42 739.904 510.253 738.878 510.279C737.862 510.311 736.862 510.4 735.878 510.551C734.779 510.665 733.732 510.717 732.732 510.717C731.743 510.717 730.836 510.483 730.003 510.009C729.696 509.592 729.577 509.248 729.649 508.967C729.733 508.675 729.847 508.399 730.003 508.134C730.112 507.926 730.217 507.733 730.315 507.551C730.425 507.358 730.482 507.134 730.482 506.884C731.16 506.623 731.863 506.399 732.587 506.217C733.321 506.04 734.051 505.842 734.774 505.634C735.243 501.608 735.441 497.404 735.357 493.029C735.285 488.644 735.118 484.129 734.857 479.488C734.857 478.811 734.841 478.129 734.815 477.446C734.784 476.769 734.754 476.087 734.712 475.404C734.655 473.436 734.586 471.467 734.503 469.509C734.43 467.55 734.368 465.581 734.315 463.592C733.691 463.8 733.034 463.883 732.357 463.842C731.675 463.79 731.097 463.629 730.628 463.363C730.112 462.988 729.8 462.488 729.69 461.863C729.591 461.238 729.904 460.509 730.628 459.676C731.305 459.733 731.988 459.759 732.67 459.759C733.347 459.759 734.03 459.733 734.712 459.676C736.472 459.676 738.202 459.732 739.899 459.842C741.608 459.941 743.217 460.332 744.732 461.009C744.732 461.274 744.66 461.462 744.524 461.571C744.399 461.67 744.258 461.77 744.107 461.863C743.675 462.03 743.462 462.238 743.462 462.488C744.931 464.629 746.41 466.78 747.899 468.946C749.384 471.113 750.857 473.269 752.315 475.404C755.133 479.435 757.962 483.456 760.795 487.467C763.639 491.482 766.451 495.447 769.232 499.363C769.118 495.353 769.065 491.363 769.065 487.404C769.065 483.436 769.014 479.462 768.92 475.488C768.805 471.572 768.571 467.665 768.212 463.759C767.837 463.592 767.467 463.488 767.107 463.446C766.743 463.394 766.378 463.363 766.003 463.363C765.336 463.254 764.738 463.123 764.212 462.967C763.696 462.816 763.41 462.399 763.357 461.717C763.3 460.832 763.941 460.191 765.274 459.801C766.608 459.415 768.154 459.191 769.92 459.134Z" fill="#222222"/>
<path d="M243.232 459.843C244.909 459.843 246.378 460.29 247.628 461.176C247.571 461.691 247.556 462.301 247.587 463.009C247.613 463.717 247.628 464.462 247.628 465.238C247.722 466.697 247.758 468.186 247.732 469.696C247.717 471.212 247.504 472.415 247.087 473.301C246.139 473.509 245.446 473.394 245.003 472.946C244.555 472.504 244.258 471.894 244.107 471.113C243.899 470.072 243.753 468.884 243.67 467.551C243.597 466.218 243.326 465.213 242.857 464.53H240.774C240.025 464.53 239.233 464.504 238.399 464.446H230.44C227.649 464.446 225.389 464.55 223.67 464.759C223.722 465.441 223.753 466.301 223.753 467.343C223.753 468.384 223.722 469.561 223.67 470.863V475.405C223.67 476.655 223.702 477.916 223.774 479.176C223.858 480.426 223.951 481.623 224.065 482.759C226.107 482.55 228.201 482.425 230.357 482.384C232.524 482.332 234.654 482.248 236.753 482.134C237.42 481.832 237.91 481.353 238.232 480.696C238.55 480.045 238.837 479.343 239.087 478.593C239.347 477.832 239.691 477.186 240.107 476.655C240.467 476.447 240.779 476.384 241.045 476.468C241.305 476.551 241.597 476.67 241.92 476.821C242.014 476.879 242.139 476.947 242.295 477.03C242.462 477.103 242.649 477.166 242.857 477.218C242.535 478.358 242.347 479.665 242.295 481.134C242.253 482.592 242.253 484.082 242.295 485.593C242.295 486.843 242.264 488.072 242.212 489.28C242.17 490.478 242.071 491.52 241.92 492.405C240.712 492.504 239.925 492.207 239.565 491.509C239.201 490.801 238.92 490.004 238.712 489.113C238.597 488.738 238.487 488.373 238.378 488.009C238.279 487.65 238.154 487.311 238.003 486.988C235.597 486.629 233.092 486.425 230.482 486.384C227.868 486.332 225.597 486.738 223.67 487.613C223.779 490.488 223.858 493.426 223.899 496.426C223.951 499.426 223.878 502.572 223.67 505.863C225.597 505.962 227.711 506.041 230.003 506.093C232.305 506.15 234.608 506.088 236.899 505.905C239.191 505.728 241.279 505.4 243.17 504.926C243.738 503.926 244.129 502.79 244.337 501.509C244.545 500.233 244.842 499.024 245.232 497.884C245.618 496.733 246.342 495.947 247.399 495.53C248.175 497.103 248.524 498.837 248.44 500.738C248.368 502.644 248.201 504.426 247.94 506.093C247.883 506.666 247.816 507.212 247.732 507.738C247.66 508.269 247.628 508.759 247.628 509.218L247.087 509.78C244.472 509.989 241.821 510.108 239.128 510.134C236.446 510.149 233.743 510.134 231.024 510.093C228.05 510.093 225.097 510.108 222.17 510.134C219.253 510.149 216.41 510.316 213.649 510.634C212.816 510.066 212.446 509.509 212.545 508.968C212.654 508.416 212.816 507.9 213.024 507.426C213.285 506.957 213.42 506.645 213.42 506.488C213.738 506.28 214.113 506.176 214.545 506.176H215.92C216.18 506.176 216.451 506.192 216.732 506.218C217.024 506.249 217.3 506.233 217.565 506.176C217.826 502.374 217.962 498.358 217.962 494.134C217.962 489.899 217.93 485.774 217.878 481.759C217.878 480.665 217.863 479.592 217.837 478.551C217.806 477.499 217.795 476.447 217.795 475.405C217.753 473.437 217.737 471.561 217.753 469.78C217.779 468.004 217.821 466.332 217.878 464.759C217.513 464.665 217.138 464.603 216.753 464.571C216.362 464.545 215.982 464.53 215.607 464.53C214.925 464.53 214.284 464.468 213.69 464.343C213.092 464.207 212.586 463.853 212.17 463.28C212.222 463.129 212.274 462.921 212.315 462.655C212.425 462.03 212.597 461.42 212.837 460.821C213.071 460.212 213.551 459.936 214.274 459.988C216.259 460.046 218.467 460.113 220.899 460.196C223.326 460.269 225.738 460.301 228.128 460.301H234.315C234.94 460.301 235.566 460.28 236.19 460.238C236.815 460.186 237.446 460.129 238.087 460.071C239.847 459.92 241.566 459.843 243.232 459.843Z" fill="#222222"/>
<path d="M500.9 459.843C502.577 459.843 504.046 460.29 505.296 461.176C505.239 461.691 505.224 462.301 505.255 463.009C505.281 463.717 505.296 464.462 505.296 465.238C505.39 466.697 505.426 468.186 505.4 469.696C505.385 471.212 505.172 472.415 504.755 473.301C503.807 473.509 503.114 473.394 502.671 472.946C502.223 472.504 501.926 471.894 501.775 471.113C501.567 470.072 501.421 468.884 501.338 467.551C501.265 466.218 500.994 465.213 500.525 464.53H498.442C497.692 464.53 496.901 464.504 496.067 464.446H488.108C485.317 464.446 483.057 464.55 481.338 464.759C481.39 465.441 481.421 466.301 481.421 467.343C481.421 468.384 481.39 469.561 481.338 470.863V475.405C481.338 476.655 481.369 477.916 481.442 479.176C481.526 480.426 481.619 481.623 481.733 482.759C483.775 482.55 485.869 482.425 488.025 482.384C490.192 482.332 492.322 482.248 494.421 482.134C495.088 481.832 495.577 481.353 495.9 480.696C496.218 480.045 496.505 479.343 496.755 478.593C497.015 477.833 497.359 477.186 497.775 476.655C498.135 476.447 498.447 476.384 498.713 476.468C498.973 476.551 499.265 476.67 499.588 476.821C499.682 476.879 499.807 476.947 499.963 477.03C500.13 477.103 500.317 477.166 500.525 477.218C500.203 478.358 500.015 479.665 499.963 481.134C499.921 482.592 499.921 484.082 499.963 485.593C499.963 486.843 499.932 488.072 499.88 489.28C499.838 490.478 499.739 491.52 499.588 492.405C498.38 492.504 497.593 492.207 497.233 491.509C496.869 490.801 496.588 490.004 496.38 489.113C496.265 488.738 496.155 488.373 496.046 488.009C495.947 487.65 495.822 487.311 495.671 486.988C493.265 486.629 490.76 486.425 488.15 486.384C485.536 486.332 483.265 486.738 481.338 487.613C481.447 490.488 481.526 493.426 481.567 496.426C481.619 499.426 481.546 502.572 481.338 505.863C483.265 505.962 485.379 506.041 487.671 506.093C489.973 506.15 492.276 506.088 494.567 505.905C496.859 505.728 498.947 505.4 500.838 504.926C501.406 503.926 501.797 502.79 502.005 501.509C502.213 500.233 502.51 499.024 502.9 497.884C503.286 496.733 504.01 495.947 505.067 495.53C505.843 497.103 506.192 498.837 506.108 500.738C506.035 502.644 505.869 504.426 505.608 506.093C505.551 506.666 505.484 507.212 505.4 507.738C505.327 508.269 505.296 508.759 505.296 509.218L504.755 509.78C502.14 509.989 499.489 510.108 496.796 510.134C494.114 510.149 491.411 510.134 488.692 510.093C485.718 510.093 482.765 510.108 479.838 510.134C476.921 510.149 474.078 510.316 471.317 510.634C470.484 510.066 470.114 509.509 470.213 508.968C470.322 508.416 470.484 507.9 470.692 507.426C470.953 506.957 471.088 506.645 471.088 506.488C471.406 506.28 471.781 506.176 472.213 506.176H473.588C473.848 506.176 474.119 506.192 474.4 506.218C474.692 506.249 474.968 506.233 475.233 506.176C475.494 502.374 475.63 498.358 475.63 494.134C475.63 489.899 475.598 485.774 475.546 481.759C475.546 480.665 475.531 479.592 475.505 478.551C475.474 477.499 475.463 476.447 475.463 475.405C475.421 473.437 475.405 471.561 475.421 469.78C475.447 468.004 475.489 466.332 475.546 464.759C475.181 464.665 474.806 464.603 474.421 464.571C474.03 464.545 473.65 464.53 473.275 464.53C472.593 464.53 471.952 464.468 471.358 464.343C470.76 464.207 470.254 463.853 469.838 463.28C469.89 463.129 469.942 462.921 469.983 462.655C470.093 462.03 470.265 461.42 470.505 460.821C470.739 460.212 471.219 459.936 471.942 459.988C473.927 460.046 476.135 460.113 478.567 460.196C480.994 460.269 483.405 460.301 485.796 460.301H491.983C492.608 460.301 493.234 460.28 493.858 460.238C494.483 460.186 495.114 460.129 495.755 460.071C497.515 459.92 499.234 459.843 500.9 459.843Z" fill="#222222"/>
<path d="M839.969 459.843C841.646 459.843 843.114 460.29 844.364 461.176C844.307 461.691 844.292 462.301 844.323 463.009C844.349 463.717 844.364 464.462 844.364 465.238C844.458 466.697 844.495 468.186 844.469 469.696C844.453 471.212 844.24 472.415 843.823 473.301C842.875 473.509 842.182 473.394 841.739 472.946C841.292 472.504 840.995 471.894 840.844 471.113C840.635 470.072 840.49 468.884 840.406 467.551C840.333 466.218 840.062 465.213 839.594 464.53H837.511C836.761 464.53 835.969 464.504 835.136 464.446H827.177C824.385 464.446 822.125 464.55 820.406 464.759C820.458 465.441 820.489 466.301 820.489 467.343C820.489 468.384 820.458 469.561 820.406 470.863V475.405C820.406 476.655 820.438 477.916 820.511 479.176C820.594 480.426 820.687 481.623 820.802 482.759C822.843 482.55 824.938 482.425 827.094 482.384C829.26 482.332 831.39 482.248 833.489 482.134C834.156 481.832 834.646 481.353 834.969 480.696C835.286 480.045 835.573 479.343 835.823 478.593C836.084 477.832 836.427 477.186 836.844 476.655C837.203 476.447 837.516 476.384 837.781 476.468C838.042 476.551 838.333 476.67 838.656 476.821C838.75 476.879 838.875 476.947 839.031 477.03C839.198 477.103 839.385 477.166 839.594 477.218C839.271 478.358 839.083 479.665 839.031 481.134C838.99 482.592 838.99 484.082 839.031 485.593C839.031 486.843 839 488.072 838.948 489.28C838.907 490.478 838.807 491.52 838.656 492.405C837.448 492.504 836.661 492.207 836.302 491.509C835.937 490.801 835.657 490.004 835.448 489.113C835.334 488.738 835.224 488.373 835.114 488.009C835.015 487.65 834.89 487.311 834.739 486.988C832.333 486.629 829.828 486.425 827.219 486.384C824.604 486.332 822.333 486.738 820.406 487.613C820.516 490.488 820.594 493.426 820.636 496.426C820.688 499.426 820.615 502.572 820.406 505.863C822.333 505.962 824.448 506.041 826.739 506.093C829.041 506.15 831.344 506.088 833.636 505.905C835.927 505.728 838.016 505.4 839.906 504.926C840.474 503.926 840.865 502.79 841.073 501.509C841.282 500.233 841.578 499.024 841.969 497.884C842.354 496.733 843.079 495.947 844.136 495.53C844.912 497.103 845.26 498.837 845.177 500.738C845.104 502.644 844.937 504.426 844.677 506.093C844.619 506.666 844.552 507.212 844.469 507.738C844.396 508.269 844.364 508.759 844.364 509.218L843.823 509.78C841.209 509.989 838.557 510.108 835.864 510.134C833.182 510.149 830.479 510.134 827.761 510.093C824.787 510.093 821.833 510.108 818.906 510.134C815.99 510.149 813.146 510.316 810.386 510.634C809.553 510.066 809.183 509.509 809.281 508.968C809.391 508.416 809.552 507.9 809.761 507.426C810.021 506.957 810.156 506.645 810.156 506.488C810.474 506.28 810.849 506.176 811.281 506.176H812.656C812.917 506.176 813.188 506.192 813.469 506.218C813.76 506.249 814.036 506.233 814.302 506.176C814.562 502.374 814.698 498.358 814.698 494.134C814.698 489.899 814.666 485.774 814.614 481.759C814.614 480.665 814.599 479.592 814.573 478.551C814.542 477.499 814.531 476.447 814.531 475.405C814.49 473.437 814.474 471.561 814.489 469.78C814.515 468.004 814.557 466.332 814.614 464.759C814.25 464.665 813.875 464.603 813.489 464.571C813.099 464.545 812.719 464.53 812.344 464.53C811.661 464.53 811.021 464.468 810.427 464.343C809.828 464.207 809.323 463.853 808.906 463.28C808.958 463.129 809.01 462.921 809.052 462.655C809.161 462.03 809.334 461.42 809.573 460.821C809.808 460.212 810.287 459.936 811.011 459.988C812.995 460.046 815.204 460.113 817.636 460.196C820.063 460.269 822.474 460.301 824.864 460.301H831.052C831.677 460.301 832.302 460.28 832.927 460.238C833.552 460.186 834.183 460.129 834.823 460.071C836.584 459.92 838.302 459.843 839.969 459.843Z" fill="#222222"/>
<path fill-rule="evenodd" clip-rule="evenodd" d="M402.057 0C426.374 0 448.464 3.85514 468.328 11.5635C488.187 19.2718 505.234 30.2453 519.474 44.4795C533.708 58.719 544.604 75.1775 552.161 93.8545C559.729 112.537 563.516 132.849 563.516 154.792V326.021C563.516 341.74 560.474 356.271 554.391 369.604C548.318 382.948 539.057 393.626 526.599 401.626C514.14 409.636 498.422 413.646 479.453 413.646C461.062 413.646 445.338 410.381 432.286 403.854C419.245 397.339 409.312 388.151 402.494 376.292C395.671 364.427 392.266 350.636 392.266 334.917C392.266 331.667 392.338 328.334 392.494 324.917C392.645 321.5 393.015 317.865 393.599 314.021C370.765 313.73 350.005 309.433 331.328 301.126C312.646 292.824 296.557 281.553 283.057 267.313C269.567 253.079 259.192 236.552 251.932 217.729C251.395 216.339 250.881 214.941 250.384 213.536C250.403 214.408 250.417 215.285 250.417 216.167C250.417 237.516 246.188 255.678 237.729 270.646C229.282 285.62 217.942 297.037 203.708 304.896C189.469 312.761 173.755 316.688 156.562 316.688H12.8955V254.417H145.875C151.802 254.417 157.146 252.938 161.896 249.979C166.646 247.011 170.422 243.157 173.229 238.417C176.047 233.667 177.458 228.474 177.458 222.834C177.458 216.907 176.047 211.574 173.229 206.834C170.422 202.084 166.646 198.23 161.896 195.271C157.146 192.303 151.802 190.813 145.875 190.813H97.8545C79.7555 190.813 63.2913 187.261 48.458 180.146C33.6352 173.021 21.8544 162.573 13.1045 148.792C4.365 135 5.33097e-05 118.47 0 99.1885C0 80.2042 4.14594 63.7457 12.4375 49.8135C20.7395 35.8865 32.0105 24.9906 46.25 17.126C60.4843 9.26666 76.1977 5.33404 93.3955 5.33398H230.833V67.6045H101.854C96.5057 67.6045 91.6096 68.938 87.167 71.6045C82.7191 74.2711 79.3125 77.8338 76.9375 82.292C74.5625 86.7399 73.375 91.6257 73.375 96.959C73.375 102.292 74.5626 107.115 76.9375 111.417C79.3125 115.724 82.7191 119.209 87.167 121.876C91.6096 124.542 96.5057 125.876 101.854 125.876H152.104C171.979 125.876 189.25 129.662 203.917 137.229C218.594 144.787 230.011 155.314 238.167 168.813C239.554 171.105 240.82 173.464 241.972 175.888C241.349 169.853 241.036 163.71 241.036 157.459C241.036 135.516 244.812 115.058 252.369 96.084C259.937 77.0996 270.765 60.417 284.849 46.042C298.932 31.6566 315.901 20.3857 335.766 12.2295C355.64 4.07858 377.734 3.85233e-05 402.057 0ZM493.244 252.646C487.005 257.98 481.588 263.469 476.994 269.104C472.395 274.729 468.765 280.584 466.099 286.667C463.432 292.75 461.432 298.98 460.099 305.354C458.765 311.729 458.099 318.324 458.099 325.146C458.099 330.48 458.833 335.001 460.307 338.709C461.791 342.417 463.943 345.23 466.766 347.146C469.583 349.073 472.479 350.042 475.453 350.042C481.078 350.042 485.442 347.74 488.557 343.146C491.682 338.548 493.244 332.547 493.244 325.146V252.646ZM402.494 63.1465C390.046 63.1465 378.562 65.4483 368.036 70.042C357.505 74.6409 348.312 81.2452 340.453 89.8545C332.589 98.4535 326.505 108.459 322.203 119.876C317.912 131.293 315.766 143.668 315.766 157.001C315.766 170.35 317.766 182.663 321.766 193.938C325.766 205.204 331.541 215.063 339.099 223.521C346.666 231.969 355.562 238.563 365.786 243.313C376.02 248.053 387.224 250.563 399.391 250.854C402.651 250.854 405.687 250.709 408.494 250.417C411.312 250.115 414.208 249.667 417.182 249.084C422.515 241.074 428.734 233.141 435.849 225.292C442.973 217.433 450.979 209.793 459.869 202.376C468.77 194.959 478.557 187.995 489.224 181.479V152.563C489.224 139.813 487.068 127.953 482.766 116.979C478.474 106.011 472.395 96.5215 464.536 88.5215C456.687 80.5111 447.5 74.2819 436.974 69.834C426.442 65.3757 414.952 63.1465 402.494 63.1465Z" fill="#222222"/>
<path d="M884.585 236.188C896.153 236.188 906.159 240.418 914.606 248.876C923.065 257.324 927.294 267.475 927.294 279.334C927.294 287.042 925.361 294.162 921.502 300.688C917.637 307.204 912.522 312.392 906.147 316.251C899.773 320.095 892.585 322.021 884.585 322.021C872.721 322.021 862.565 317.797 854.106 309.354C845.659 300.896 841.439 290.891 841.439 279.334C841.439 267.475 845.659 257.324 854.106 248.876C862.565 240.418 872.721 236.189 884.585 236.188Z" fill="#222222"/>
<path d="M646.214 111.188C646.214 122.47 648.579 132.782 653.318 142.126C658.068 151.459 664.819 158.87 673.568 164.354C682.318 169.844 692.62 172.584 704.484 172.584C716.344 172.584 726.641 169.844 735.381 164.354C744.131 158.87 750.87 151.459 755.609 142.126C760.359 132.782 762.734 122.47 762.734 111.188V5.33398H835.693V107.188C835.693 129.428 831.839 149.074 824.131 166.126C816.423 183.183 805.448 197.344 791.214 208.604C776.974 219.87 760.37 227.578 741.401 231.729V316.688H667.109V231.729C648.136 227.287 631.61 219.511 617.526 208.396C603.443 197.272 592.537 183.183 584.818 166.126C577.11 149.074 573.256 129.428 573.256 107.188V5.33398H646.214V111.188Z" fill="#222222"/>
</svg>
